# xmcd
#
# Track frame offsets:
# 150
# 21905
# 46384
# 67750
# 87002
# 104257
# 125560
# 132355
# 145604
# 173684
# 191574
# 213461
# 249885
# 271356
# 287387
# 299527
# 320064
# 338162
#
# Disc length: 4722 seconds
#
#
# Revision: 0
# Processed by: cddbd v1.5.1PL0 Copyright (c) Steve Scherf et al.
# Submitted via: FreeRIP 2.941 
#
DISCID=09127012
DTITLE=ras kass - see what i see - vol. 1
DYEAR=1492
DGENRE=hip hop
TTITLE0=on earth as it is in heaven
TTITLE1=action guaranteed (feat. O.C.)
TTITLE2=riiot (feat. Chino XL)
TTITLE3=soul on ice (rmx)
TTITLE4=i gets paper (feat. Mr. Dog)
TTITLE5=my bloc (feat. Caz, Kurupt and Roscoe)
TTITLE6=birdman freestyle
TTITLE7=shine all night (feat. Napalm)
TTITLE8=the evil that men do
TTITLE9=archangels
TTITLE10=the truth (demo version)
TTITLE11=radio freestyle (feat. Black Rob and Lord Tariq)
TTITLE12=come wit it (feat. Ahmad and Saafir)
TTITLE13=skills
TTITLE14=jack frost
TTITLE15=future flavaz freestyle (feat. Canibus)
TTITLE16=west coast mentality
TTITLE17=uni-4-m (feat. HRSMN and Heltah Skeltah)
EXTD=
EXTT0=
EXTT1=
EXTT2=
EXTT3=
EXTT4=
EXTT5=
EXTT6=
EXTT7=
EXTT8=
EXTT9=
EXTT10=
EXTT11=
EXTT12=
EXTT13=
EXTT14=
EXTT15=
EXTT16=
EXTT17=
PLAYORDER=
